<svg width="87" height="87" viewBox="0 0 87 87" fill="none" xmlns="http://www.w3.org/2000/svg">
<g clip-path="url(#clip0)">
<path d="M43.41 86.82C67.3847 86.82 86.82 67.3847 86.82 43.41C86.82 19.4353 67.3847 0 43.41 0C19.4353 0 0 19.4353 0 43.41C0 67.3847 19.4353 86.82 43.41 86.82Z" fill="#F14942"/>
<path d="M47.3195 25.06L43.4095 16.8L39.4995 25.06L32.9795 20.71L34.9395 31.14H43.4095H51.8795L53.8395 20.71L47.3195 25.06Z" stroke="white" stroke-miterlimit="10"/>
<path d="M53.7998 34.4001C48.8398 33.9701 45.7998 35.4901 43.4098 35.4901C41.0198 35.4901 37.9798 33.9701 33.0198 34.4001C29.0298 34.7501 27.3598 41.2801 30.2498 47.9401C31.8498 51.6401 32.7898 55.5801 33.2198 59.5901C33.7998 65.0101 35.5698 70.0101 37.5398 70.0101C40.3598 70.0101 40.3598 56.3301 43.3998 56.3301C46.4398 56.3301 46.4398 70.0101 49.2598 70.0101C51.2398 70.0101 52.9998 65.0101 53.5798 59.5901C54.0098 55.5801 54.9498 51.6401 56.5498 47.9401C59.4598 41.2701 57.7898 34.7501 53.7998 34.4001Z" stroke="white" stroke-miterlimit="10"/>
<path d="M49.5195 37.7401C49.5195 37.7401 55.8695 36.0301 54.4895 44.3401" stroke="white" stroke-width="1.0006" stroke-miterlimit="10" stroke-linecap="round" stroke-linejoin="round"/>
</g>
<defs>
<clipPath id="clip0">
<rect width="86.82" height="86.82" fill="white"/>
</clipPath>
</defs>
</svg>
