<svg width="87" height="87" viewBox="0 0 87 87" fill="none" xmlns="http://www.w3.org/2000/svg">
<g clip-path="url(#clip0)">
<path d="M43.41 86.82C67.3847 86.82 86.82 67.3847 86.82 43.41C86.82 19.4353 67.3847 0 43.41 0C19.4353 0 0 19.4353 0 43.41C0 67.3847 19.4353 86.82 43.41 86.82Z" fill="#F6B839"/>
<path d="M54.5503 51.0101C55.0703 48.5801 55.8103 46.2101 56.8003 43.9301C59.6903 37.2601 58.0203 30.7401 54.0303 30.3901C49.0703 29.9601 46.0303 31.4801 43.6403 31.4801C41.2503 31.4801 38.2103 29.9601 33.2503 30.3901C29.2603 30.7401 27.5903 37.2701 30.4803 43.9301C32.0803 47.6301 33.0203 51.5701 33.4503 55.5801C34.0303 61.0001 35.8003 66.0001 37.7703 66.0001C40.5903 66.0001 40.5903 52.3201 43.6303 52.3201C46.6703 52.3201 46.6703 66.0001 49.4903 66.0001C51.2803 66.0001 52.9003 61.8901 53.6203 57.0701" stroke="white" stroke-width="1.0006" stroke-miterlimit="10"/>
<path d="M46.2902 39.4399C46.0502 42.4399 44.7802 44.5799 43.6402 44.5799C42.4902 44.5799 41.2202 42.4399 40.9902 39.4399H46.2902ZM47.3302 38.4399H39.9502C39.9502 42.3799 41.6002 45.5799 43.6402 45.5799C45.6702 45.5799 47.3302 42.3799 47.3302 38.4399Z" fill="white"/>
<path d="M50.4503 36.02C49.9403 36.02 49.5303 36.77 49.5303 37.7C49.5303 38.63 49.9403 39.38 50.4503 39.38C50.9603 39.38 51.3703 38.63 51.3703 37.7C51.3703 36.77 50.9603 36.02 50.4503 36.02Z" fill="white"/>
<path d="M36.8204 36.02C36.3104 36.02 35.9004 36.77 35.9004 37.7C35.9004 38.63 36.3104 39.38 36.8204 39.38C37.3304 39.38 37.7404 38.63 37.7404 37.7C37.7404 36.77 37.3304 36.02 36.8204 36.02Z" fill="white"/>
<path d="M54.4005 51.5801L55.0105 52.8201L55.2405 53.2901L55.7605 53.3701L57.1305 53.5701L56.1405 54.5301L55.7605 54.9001L55.8505 55.4201L56.0805 56.7801L54.8605 56.1401L54.3905 55.9001L53.9205 56.1401L52.7005 56.7801L52.9305 55.4201L53.0205 54.9001L52.6405 54.5301L51.6505 53.5701L53.0205 53.3701L53.5405 53.2901L53.7705 52.8201L54.4005 51.5801ZM54.4005 49.3201L52.8905 52.3801L49.5205 52.8701L51.9605 55.2501L51.3805 58.6101L54.4005 57.0201L57.4205 58.6101L56.8405 55.2501L59.2805 52.8701L55.9105 52.3801L54.4005 49.3201Z" fill="white"/>
<path d="M27.65 23.75L28.02 24.5L28.25 24.97L28.77 25.05L29.6 25.17L29 25.76L28.62 26.13L28.71 26.65L28.85 27.48L28.11 27.09L27.64 26.85L27.17 27.09L26.43 27.48L26.57 26.65L26.66 26.13L26.28 25.76L25.68 25.17L26.51 25.05L27.03 24.97L27.26 24.5L27.65 23.75ZM27.65 21.49L26.38 24.06L23.54 24.47L25.59 26.47L25.11 29.3L27.65 27.97L30.19 29.3L29.71 26.47L31.76 24.47L28.92 24.06L27.65 21.49Z" fill="white"/>
<path d="M35.5408 23.1299L35.0508 22.6599L35.7308 22.5599L36.0308 21.9399L36.3408 22.5599L37.0108 22.6599L36.5208 23.1299L36.6408 23.8099L36.0308 23.4899L35.4308 23.8099L35.5408 23.1299Z" fill="white"/>
<path d="M36.0305 20.8101L35.4005 22.1001L33.9805 22.3101L35.0105 23.3101L34.7605 24.7201L36.0305 24.0501L37.3005 24.7201L37.0605 23.3101L38.0905 22.3101L36.6705 22.1001L36.0305 20.8101Z" fill="white"/>
</g>
<defs>
<clipPath id="clip0">
<rect width="86.82" height="86.82" fill="white"/>
</clipPath>
</defs>
</svg>
