<svg width="87" height="87" viewBox="0 0 87 87" fill="none" xmlns="http://www.w3.org/2000/svg">
<g clip-path="url(#clip0)">
<path d="M43.41 86.82C67.3847 86.82 86.82 67.3847 86.82 43.41C86.82 19.4353 67.3847 0 43.41 0C19.4353 0 0 19.4353 0 43.41C0 67.3847 19.4353 86.82 43.41 86.82Z" fill="#444D73"/>
<path d="M55.3605 26.89C51.2705 25.69 48.4705 26.45 46.4605 26.04C44.4605 25.64 42.1605 23.85 37.9305 23.37C34.5305 22.99 32.0205 28.18 33.3205 34.26C34.0405 37.63 34.1605 41.1 33.8405 44.53C33.4105 49.18 34.0405 53.67 35.7005 54C38.0705 54.48 40.3805 43 42.9305 43.52C45.4805 44.03 43.1705 55.51 45.5305 55.99C47.1905 56.32 49.5105 52.43 50.9205 47.98C51.9605 44.69 53.4205 41.54 55.3805 38.71C58.9505 33.61 58.6505 27.85 55.3605 26.89Z" stroke="white" stroke-miterlimit="10"/>
<path d="M51.2109 28.9699C51.2109 28.9699 56.8309 28.6099 54.2609 35.3399" stroke="white" stroke-width="1.0006" stroke-miterlimit="10" stroke-linecap="round" stroke-linejoin="round"/>
<path d="M68.5003 38.63C62.6403 38.63 55.7903 37.08 55.7903 51.65C55.7903 58.9 49.6003 63.47 43.4103 63.47C37.2203 63.47 31.0303 58.9 31.0303 51.65C31.0303 37.08 24.1903 38.63 18.3203 38.63" stroke="white" stroke-miterlimit="10"/>
</g>
<defs>
<clipPath id="clip0">
<rect width="86.82" height="86.82" fill="white"/>
</clipPath>
</defs>
</svg>
