<svg width="66" height="55" viewBox="0 0 66 55" fill="none" xmlns="http://www.w3.org/2000/svg">
<g clip-path="url(#clip0)">
<path d="M25.8191 2.84343C19.0416 9.58641 13.4743 19.6603 13.4743 24.3722C13.4743 25.5096 13.9584 26.4845 14.4425 27.2157C22.5917 27.2157 28.643 32.8213 28.643 41.0266C28.643 49.2319 22.5917 55.0812 14.4425 55.0812C6.93887 55 0 50.1256 0 39.0768C0 23.6411 14.6846 8.69276 22.9951 0L25.8191 2.84343ZM63.2567 2.84343C56.4792 9.58641 50.912 19.6603 50.912 24.3722C50.912 25.5096 51.3961 26.4845 51.8802 27.2157C59.7873 27.2157 66.0807 32.8213 66.0807 41.0266C66.0807 49.2319 59.7873 55.0812 51.8802 55.0812C44.4572 55.0812 37.4377 50.1256 37.4377 39.1581C37.4377 23.7223 52.1222 8.69276 60.4328 0.0812408L63.2567 2.84343Z" fill="#EEEEEE"/>
</g>
<defs>
<clipPath id="clip0">
<rect width="66" height="55" fill="white"/>
</clipPath>
</defs>
</svg>
